<svg xmlns="http://www.w3.org/2000/svg" viewBox="0 0 90 90"><title>happy-message</title><g id="happy-message-flat"><circle id="label" cx="45" cy="45" r="45" fill="#acaf48"/><g id="shadow"><path d="M88.59,54.65l-.18-.18-.18-.18-.18-.18-.18-.18-.18-.18-.18-.18-.18-.18-.18-.18L87,53l-.18-.18-.18-.18-.18-.18-.18-.18-.18-.18L85.9,52l-.18-.18-.18-.18-.18-.18-.18-.18L85,51.07l-.18-.18-.18-.18-.18-.18-.18-.18-.18-.18L83.93,50l-.18-.18-.18-.18-.18-.18-.18-.18L83,49.1l-.18-.18-.18-.18-.18-.18-.18-.18-.18-.18L82,48l-.18-.18-.18-.18-.18-.18-.18-.18-.18-.18-.18-.18-.18-.18-.18-.18-.18-.18-.18-.18L80,46l-.18-.18-.18-.18-.18-.18-.18-.18-.18-.18L78.91,45l-.18-.18-.18-.18-.18-.18-.18-.18L78,44.08l-.18-.18-.18-.18-.18-.18-.18-.18-.18-.18L76.94,43l-.18-.18-.18-.18-.18-.18-.18-.18L76,42.11l-.18-.18-.18-.18-.18-.18-.18-.18-.18-.18L75,41l-.18-.18-.18-.18-.18-.18-.18-.18-.18-.18L73.89,40l-.18-.18-.18-.18-.18-.18-.18-.18L73,39.06l-.18-.18-.18-.18-.18-.18-.18-.18-.18-.18L71.92,38l-.18-.18-.18-.18-.18-.18-.18-.18L71,37.09l-.18-.18-.18-.18-.18-.18-.18-.18-.18-.18L69.95,36l-.18-.18-.18-.18-.18-.18-.18-.18L69,35.11l-.18-.18-.18-.18-.18-.18-.18-.18-.18-.18L68,34l-.18-.18-.18-.18-.18-.18-.18-.18-.18-.18L66.9,33l-.18-.18-.18-.18-.18-.18-.18-.18L66,32.06l-.18-.18-.18-.18-.18-.18-.18-.18-.18-.18L64.93,31l-.18-.18-.18-.18-.18-.18-.18-.18L64,30.09l-.18-.18-.18-.18-.18-.18-.18-.18-.18-.18L63,29l-.18-.18-.18-.18-.18-.18-.18-.18-.18-.18A24,24,0,1,0,28.12,62.06l.18.18.18.18.18.18.18.18L29,63l.18.18.18.18.18.18.18.18.18.18.18.18.18.18.18.18.18.18.18.18.18.18.18.18.18.18.18.18.18.18.18.18.18.18.18.18.18.18.18.18.18.18.18.18.18.18.18.18.18.18.18.18.18.18L34,68l.18.18.18.18.18.18.18.18.18.18.18.18.18.18.18.18.18.18.18.18.18.18.18.18.18.18.18.18.18.18.18.18.18.18.18.18.18.18.18.18.18.18.18.18.18.18.18.18.18.18.18.18.18.18.18.18.18.18.18.18.18.18.18.18.18.18.18.18.18.18.18.18.18.18.18.18L41,75l.18.18.18.18.18.18.18.18.18.18.18.18.18.18.18.18.18.18.18.18.18.18.18.18.18.18.18.18.18.18.18.18.18.18.18.18.18.18.18.18.18.18.18.18.18.18.18.18.18.18.18.18.18.18L46,80l.18.18.18.18.18.18.18.18.18.18.18.18.18.18.18.18.18.18.18.18L48,82l.18.18.18.18.18.18.18.18.18.18.18.18.18.18.18.18.18.18.18.18.18.18.18.18.18.18.18.18.18.18.18.18.18.18.18.18.18.18.18.18.18.18.18.18.18.18.18.18.18.18.18.18.18.18L53,87l.18.18.18.18.18.18.18.18.18.18.18.18.18.18.18.18.18.18.18.18.11.11A45,45,0,0,0,88.88,54.95l-.11-.11Z" fill="#9ea142"/></g><g id="happy-message"><circle cx="45" cy="45" r="24" fill="#ffca28"/><path d="M60.65,37.26a6.36,6.36,0,0,0-5.88-3.88H54.7a6.35,6.35,0,0,0-5.9,3.88,1.14,1.14,0,0,0,2.11.88,4.09,4.09,0,0,1,3.8-2.48h0a4.1,4.1,0,0,1,3.81,2.48,1.14,1.14,0,0,0,2.11-.89Z" fill="#434a54"/><path d="M35.08,33.8h0a6.38,6.38,0,0,0-5.64,3.33,1.14,1.14,0,1,0,2,1.09A4.11,4.11,0,0,1,35,36.08h0a4.1,4.1,0,0,1,3.62,2.13,1.14,1.14,0,1,0,2-1.09A6.38,6.38,0,0,0,35.08,33.8Z" fill="#434a54"/><path d="M45,60A16,16,0,0,1,29,45.2H61A16.05,16.05,0,0,1,45,60Z" fill="#fc6e51"/></g></g></svg>